<?xml version="1.0" encoding="UTF-8" standalone="no"?>
<!-- Created with Inkscape (http://www.inkscape.org/) -->

<svg
   width="166.40338mm"
   height="38.542534mm"
   viewBox="0 0 166.40338 38.542534"
   version="1.1"
   id="svg1"
   inkscape:version="1.3 (0e150ed6c4, 2023-07-21)"
   sodipodi:docname="Sapiensv2white_live.svg"
   xmlns:inkscape="http://www.inkscape.org/namespaces/inkscape"
   xmlns:sodipodi="http://sodipodi.sourceforge.net/DTD/sodipodi-0.dtd"
   xmlns="http://www.w3.org/2000/svg"
   xmlns:svg="http://www.w3.org/2000/svg">
  <sodipodi:namedview
     id="namedview1"
     pagecolor="#505050"
     bordercolor="#eeeeee"
     borderopacity="1"
     inkscape:showpageshadow="0"
     inkscape:pageopacity="0"
     inkscape:pagecheckerboard="0"
     inkscape:deskcolor="#505050"
     inkscape:document-units="mm"
     inkscape:zoom="1.5332452"
     inkscape:cx="359.36848"
     inkscape:cy="55.111864"
     inkscape:window-width="2560"
     inkscape:window-height="1494"
     inkscape:window-x="-11"
     inkscape:window-y="-11"
     inkscape:window-maximized="1"
     inkscape:current-layer="layer1" />
  <defs
     id="defs1" />
  <g
     inkscape:label="Layer 1"
     inkscape:groupmode="layer"
     id="layer1"
     transform="translate(-24.341667,-84.66667)">
    <path
       style="display:inline;fill:#ffffff;fill-opacity:1;stroke-width:0.175458;stroke-miterlimit:4;stroke-dasharray:none"
       d="m 28.124938,113.24094 c -1.904563,-0.21578 -2.905959,-0.48671 -3.264942,-0.88339 -0.196045,-0.21662 -0.354206,-0.75061 -0.417066,-1.40802 l -0.101263,-1.05908 1.059519,0.11151 c 0.582732,0.0612 1.768995,0.18741 2.636155,0.28022 2.094247,0.22415 6.316513,0.21889 7.136623,-0.009 0.36018,-0.10006 0.73462,-0.33089 0.83211,-0.51306 0.0978,-0.18267 0.17724,-1.554 0.17724,-3.05802 0,-2.4292 -0.0357,-2.76257 -0.32729,-3.05414 -0.3632,-0.3632 -0.91245,-0.44746 -4.752993,-0.72919 -3.214843,-0.23581 -4.619839,-0.45507 -5.548474,-0.86585 -0.969367,-0.42879 -1.016233,-0.68492 -1.011602,-5.52793 0.004,-4.44392 0.08423,-4.81182 1.137362,-5.2332 2.316319,-0.92682 9.874867,-1.01036 12.501147,-0.13818 0.99816,0.33149 1.22156,0.65495 1.39529,2.02028 l 0.10792,0.84826 -0.91858,-0.079 c -4.53301,-0.38988 -7.572659,-0.51525 -9.063442,-0.37383 -1.659989,0.15748 -1.663342,0.15877 -1.77489,0.68333 -0.06148,0.28904 -0.12109,1.49123 -0.132533,2.67153 -0.01863,1.92832 0.01477,2.18151 0.329629,2.49635 0.192705,0.19269 0.410279,0.35036 0.483492,0.35036 0.07319,0 1.630169,0.11843 3.459856,0.26302 3.440108,0.27198 5.325458,0.50544 6.404428,0.79301 l 0.62516,0.16664 0.20742,1.5579 c 0.36766,2.76146 0.4296,4.62167 0.21949,6.59169 -0.28016,2.62692 -0.44596,3.184 -1.03881,3.49058 -1.29139,0.6678 -6.916017,0.99737 -10.361036,0.60709 z"
       id="path930-1-4-2-5-0-5"
       inkscape:connector-curvature="0" />
    <path
       style="display:inline;fill:#ffffff;fill-opacity:1;stroke-width:0.175458;stroke-miterlimit:4;stroke-dasharray:none"
       d="m 45.730774,113.33078 c -1.35833,-0.18964 -2.70813,-0.65361 -3.09305,-1.06319 -0.40121,-0.42692 -0.41061,-0.51375 -0.41061,-3.79522 0,-1.84706 0.0588,-3.56791 0.13067,-3.8241 0.28099,-1.00128 2.6304,-1.53312 6.82177,-1.54428 l 1.697011,-0.004 -0.095,-0.65693 c -0.23756,-1.64293 -0.27192,-1.69544 -1.20782,-1.84591 -1.11547,-0.17933 -4.20515,-0.008 -5.77288,0.31988 -0.67281,0.14077 -1.28246,0.25595 -1.35476,0.25595 -0.20359,0 -0.15505,-1.90597 0.0587,-2.30537 0.29277,-0.54706 1.498,-0.98663 3.32056,-1.21111 2.85826,-0.35203 6.920508,0.12322 7.615248,0.89082 0.546362,0.60373 0.774322,6.26847 0.459473,11.41804 -0.149672,2.44796 -0.247753,2.60331 -1.916803,3.03632 -1.13098,0.29341 -5.037038,0.49934 -6.252588,0.32961 z m 4.28076,-3.02775 c 0.53599,-0.14968 0.70097,-0.72422 0.72913,-2.53896 0.0154,-0.99098 -0.0456,-1.42168 -0.21687,-1.53016 -0.13107,-0.083 -1.15583,-0.15217 -2.27726,-0.15365 -2.75025,-0.004 -2.86614,0.0848 -2.86614,2.1871 0,2.05571 0.16322,2.19664 2.51576,2.17232 0.92874,-0.009 1.88067,-0.0711 2.11538,-0.13665 z"
       id="path932-2-7-9-6-1-0"
       inkscape:connector-curvature="0" />
    <path
       style="display:inline;fill:#ffffff;fill-opacity:1;stroke-width:0.175458;stroke-miterlimit:4;stroke-dasharray:none"
       d="m 58.199295,122.89525 c -0.65764,-0.17522 -1.248891,-0.37193 -1.313881,-0.43715 -0.1549,-0.15543 -0.111511,-16.51267 0.0544,-20.49477 0.116309,-2.79222 0.16328,-3.1227 0.486379,-3.4237 1.056722,-0.9845 6.79192,-1.30991 9.531921,-0.54085 l 1.431769,0.40186 0.14487,1.34212 c 0.176731,1.63718 0.16833,10.47828 -0.01061,11.63741 -0.223239,1.44248 -1.408689,1.86174 -5.668859,2.00491 l -2.846721,0.0957 v 4.60525 c 0,2.53288 -0.0479,4.72995 -0.10632,4.88237 -0.128,0.33354 -0.185539,0.33106 -1.702509,-0.0732 z m 6.809248,-12.65015 c 0.279691,-0.27977 0.415322,-1.79142 0.421111,-4.69307 0.003,-1.68614 -0.0439,-3.48172 -0.104989,-3.99019 l -0.110972,-0.92448 -2.376138,0.0486 c -2.367812,0.0484 -2.37654,0.05 -2.497712,0.48652 -0.0669,0.24088 -0.129468,2.38328 -0.13907,4.76088 -0.01611,3.97519 0.007,4.33008 0.289121,4.41176 0.45403,0.13161 4.37388,0.0447 4.518649,-0.10006 z"
       id="path934-9-1-8-6-9-2"
       inkscape:connector-curvature="0" />
    <path
       style="display:inline;fill:#ffffff;fill-opacity:1;stroke-width:0.175458;stroke-miterlimit:4;stroke-dasharray:none"
       d="m 71.21983,105.3048 v -7.95528 l 1.094891,0.25186 c 0.602171,0.13852 1.35109,0.33473 1.66424,0.43601 l 0.56933,0.18414 v 7.51927 7.51926 H 72.88407 71.21983 Z"
       id="path936-4-6-4-9-9-6"
       inkscape:connector-curvature="0" />
    <path
       style="display:inline;fill:#ffffff;fill-opacity:1;stroke-width:0.175458;stroke-miterlimit:4;stroke-dasharray:none"
       d="m 72.0481,94.74817 c -0.779369,-0.1308 -1.053999,-0.73866 -0.973899,-2.15591 0.0381,-0.67296 0.158311,-1.31278 0.267319,-1.42179 0.26969,-0.26967 1.609191,-0.40296 2.582622,-0.25699 l 0.799338,0.1199 v 1.63204 c 0,1.10899 -0.0716,1.69146 -0.223369,1.81742 -0.264171,0.21925 -1.761181,0.38125 -2.452011,0.26536 z"
       id="path938-2-8-7-4-2-1"
       inkscape:connector-curvature="0" />
    <path
       style="display:inline;fill:#ffffff;fill-opacity:1;stroke-width:0.175458;stroke-miterlimit:4;stroke-dasharray:none"
       d="m 80.045751,113.17723 c -1.598009,-0.29008 -2.191671,-0.58183 -2.50834,-1.23264 -0.338691,-0.69608 -0.392031,-12.15853 -0.0601,-12.90972 0.447471,-1.01259 2.192689,-1.45033 5.742501,-1.44038 2.82344,0.008 4.61659,0.32629 5.220628,0.92693 0.399632,0.39736 0.58374,1.74152 0.741011,5.41017 l 0.122039,2.84672 h -4.495808 -4.495821 l 0.11298,1.09488 c 0.190121,1.84344 0.384471,2.39066 0.89449,2.51866 0.739931,0.18571 4.977939,-0.0681 6.017281,-0.36035 1.54763,-0.43519 1.576628,-0.42232 1.576628,0.69992 0,1.1694 -0.182478,1.55692 -0.910508,1.9334 -1.369761,0.70832 -5.435491,0.97014 -7.956992,0.51241 z m 5.821709,-10.16535 c -0.0591,-0.43358 -0.156189,-1.14522 -0.215699,-1.58145 l -0.10818,-0.79312 -2.38052,0.0486 -2.38053,0.0486 -0.11883,0.61314 c -0.0653,0.33722 -0.17,1.02701 -0.23263,1.53284 l -0.1139,0.91971 h 2.82884 2.82883 z"
       id="path940-0-0-1-2-4-5"
       inkscape:connector-curvature="0" />
    <path
       style="display:inline;fill:#ffffff;fill-opacity:1;stroke-width:0.175458;stroke-miterlimit:4;stroke-dasharray:none"
       d="m 91.54269,110.15057 c 0.003,-5.76514 0.467651,-11.34012 0.97663,-11.72119 1.134071,-0.8491 6.629321,-1.16578 9.1255,-0.52589 0.69143,0.17725 1.39519,0.47482 1.56393,0.66127 0.38147,0.4215 0.51233,2.22678 0.68747,9.48361 l 0.12575,5.21169 h -1.65855 -1.65857 l -0.12149,-5.38687 c -0.0668,-2.96277 -0.16875,-5.80073 -0.22653,-6.30657 l -0.105,-0.91971 h -2.33048 c -1.645129,0 -2.36937,0.0628 -2.462609,0.21377 -0.10726,0.17351 -0.34071,6.80798 -0.400881,11.39208 l -0.01331,1.0073 h -1.751811 -1.75183 z"
       id="path942-0-17-6-8-2-8"
       inkscape:connector-curvature="0" />
    <path
       style="display:inline;fill:#ffffff;fill-opacity:1;stroke-width:0.175458;stroke-miterlimit:4;stroke-dasharray:none"
       d="m 110.54828,113.33261 c -2.49727,-0.35484 -3.48968,-0.70287 -3.67574,-1.28907 -0.27658,-0.87147 -0.38761,-2.14346 -0.19359,-2.21792 0.10991,-0.0422 1.1318,0.0826 2.27094,0.27743 2.34361,0.40066 5.05297,0.46168 5.71517,0.12867 0.51858,-0.26077 0.82025,-1.44764 0.62815,-2.47152 -0.15392,-0.82045 -0.37485,-0.90595 -3.22166,-1.24691 -3.89814,-0.46686 -4.92939,-0.79212 -5.29275,-1.66941 -0.27414,-0.6618 -0.16267,-5.52291 0.13906,-6.06557 0.78046,-1.40368 7.80088,-1.71697 10.59438,-0.47279 0.69378,0.309 0.83634,0.61465 1.08283,2.32143 l 0.11097,0.7684 -0.57522,-0.10246 c -0.31639,-0.0563 -1.16647,-0.23548 -1.8891,-0.39805 -1.6425,-0.36951 -5.82466,-0.44834 -6.15766,-0.11603 -0.25172,0.25115 -0.44342,2.49604 -0.2131,2.4955 0.86705,-0.001 5.7915,0.62312 6.67822,0.84771 1.49358,0.37829 1.72667,0.70206 1.97547,2.74388 0.27562,2.26202 -0.0613,5.02216 -0.68162,5.58351 -0.52622,0.47623 -2.31757,0.82545 -4.5794,0.89274 -1.20439,0.0359 -2.42629,0.0315 -2.71534,-0.009 z"
       id="path944-4-5-8-9-1-5"
       inkscape:connector-curvature="0" />
    <path
       style="display:inline;fill:#ffffff;fill-opacity:1;stroke-width:0.175458;stroke-miterlimit:4;stroke-dasharray:none"
       d="m 134.51468,113.25837 c -0.53145,-0.21407 -0.867,-0.781 -1.57814,-2.66632 -0.6746,-1.78846 -3.55616,-11.7053 -3.55616,-12.23846 0,-0.30563 0.14326,-0.33441 1.66424,-0.33441 0.91533,0 1.66423,0.0313 1.66423,0.0696 0,0.14858 2.96664,10.21296 3.15594,10.7066 l 0.2006,0.52307 0.23113,-0.43795 c 0.19329,-0.36627 1.95773,-6.18789 2.98662,-9.85401 l 0.28268,-1.0073 1.17006,-0.0194 c 1.34877,-0.0224 2.01088,0.0194 2.12923,0.13429 0.10845,0.10525 -0.44449,2.20156 -1.86423,7.06758 -1.2822,4.39462 -2.16676,6.8126 -2.80373,7.66422 -0.42143,0.56346 -0.44071,0.56924 -1.86218,0.55825 -0.78997,-0.007 -1.60912,-0.0808 -1.82029,-0.16577 z"
       id="path946-7-8-4-3-4-0"
       inkscape:connector-curvature="0" />
    <path
       style="display:inline;fill:#ffffff;fill-opacity:1;stroke-width:0.0626325;stroke-miterlimit:4;stroke-dasharray:none"
       d="m 178.71337,114.99017 c -0.8492,-0.0243 -1.91782,-0.0852 -2.37466,-0.13526 l -0.83064,-0.091 -0.23613,-0.25314 c -0.42271,-0.45316 -0.29068,-0.75973 0.77175,-1.79209 0.85812,-0.83381 1.22706,-1.10065 2.03655,-1.47286 0.44373,-0.20404 0.68476,-0.27019 1.26867,-0.34822 0.89793,-0.12002 0.88569,-0.12002 1.37746,0.008 0.55766,0.14509 1.00243,0.40911 1.60923,0.95521 0.63395,0.57054 0.71441,0.76063 0.54711,1.2925 -0.17975,0.57148 -0.52217,1.03677 -0.97706,1.32766 -0.80563,0.5152 -1.13768,0.56819 -3.19228,0.50935 z"
       id="path988-3-2-2-3-1-7"
       inkscape:connector-curvature="0" />
    <path
       style="display:inline;fill:#ffffff;fill-opacity:1;stroke-width:0.0626325;stroke-miterlimit:4;stroke-dasharray:none"
       d="m 183.28263,107.23404 c -0.77813,-0.78684 -1.87444,-1.03626 -1.46472,-1.21792 0.4693,-0.2114 2.68278,-0.70557 2.84789,-0.7858 0.16506,-0.0802 0.33089,-0.13846 0.36845,-0.12937 0.0375,0.009 0.18238,0.11038 0.3219,0.22485 0.35758,0.29371 0.81082,0.3676 1.51956,0.2477 0.3,-0.0507 0.58026,-0.1164 0.62273,-0.14589 0.0451,-0.0314 -0.24868,-0.069 -0.70588,-0.0907 -0.95901,-0.0454 -0.96085,-0.0459 -1.29948,-0.33504 -0.30789,-0.26298 -0.43348,-0.55029 -0.64176,-1.46789 -0.22483,-0.99056 -0.11875,-1.33932 0.51226,-1.68416 0.54651,-0.29864 1.22511,-0.39469 2.04466,-0.28935 0.37391,0.048 0.74718,0.12575 0.82955,0.17252 0.28669,0.16295 0.58401,0.83311 0.78941,1.77892 0.29026,1.33668 0.29382,1.44868 0.0602,1.89973 -0.29901,0.5774 -1.10193,1.38885 -2.46947,2.49568 -0.60732,0.49153 -2.21704,1.21229 -2.36297,1.1964 -0.2573,-0.74534 -0.38789,-1.17824 -0.97234,-1.86968 z"
       id="path984-6-6-95-1-7-1"
       inkscape:connector-curvature="0"
       sodipodi:nodetypes="cccccccccccccccccc" />
    <path
       style="display:inline;fill:#ffffff;fill-opacity:1;fill-rule:evenodd;stroke:none;stroke-width:0.0357143;stroke-linecap:round;stroke-miterlimit:4;stroke-dasharray:none;stroke-dashoffset:7.55906;stroke-opacity:1;paint-order:stroke markers fill"
       d="m 151.95542,85.43476 c -2.78293,0.0169 -5.68965,1.33726 -7.11233,3.80394 -0.50319,0.81277 -0.5686,2.10679 0.39734,2.60929 0.91251,0.48525 1.73458,-0.43734 2.19828,-1.12894 1.07996,-1.50248 2.96623,-2.39472 4.82141,-2.2407 1.02162,-0.0566 2.16403,0.0312 2.90884,0.82273 0.63002,0.52253 0.88131,1.44278 0.52635,2.20659 -0.58559,1.73217 -2.13165,2.83782 -3.29851,4.16523 -2.21103,2.35509 -4.68895,4.51469 -6.46722,7.2368 -0.89634,1.3936 -1.55866,3.03604 -1.32716,4.72231 0.10927,1.80742 1.84323,3.76616 4.14492,5.0336 2.15061,0.97946 4.52368,2.06186 9.81846,2.01794 1.97165,0.007 5.76572,-1.16974 4.96113,-2.34035 0.60766,-0.68736 -1.59111,-2.43956 -2.83294,-2.12784 -1.73984,1.26259 -6.98546,1.10486 -10.03958,-0.18987 -0.78044,-0.38121 -2.13508,-0.85249 -2.6236,-1.94983 -0.48622,-1.41826 -0.31548,-2.59216 0.85792,-4.11413 0.88325,-1.14563 0.99319,-1.28869 1.64061,-2.01615 2.29012,-2.52786 4.8465,-4.81193 7.00677,-7.45635 1.57943,-1.97868 1.82294,-5.09829 0.0897,-7.06177 -1.39221,-1.55956 -3.672,-1.98903 -5.67038,-1.9925 z"
       id="path18216-1"
       inkscape:connector-curvature="0"
       sodipodi:nodetypes="ccccccccccccccccscccc" />
    <g
       id="g1823"
       style="display:inline;fill:#f9f9f9;fill-opacity:1"
       transform="translate(75.794809,-253.06546)">
      <path
         sodipodi:nodetypes="ccccccccccccccccccccccccccccccccccccccc"
         inkscape:connector-curvature="0"
         id="path982-1-4-7-3-6-9"
         d="m 86.670427,367.18197 c -2.07886,-1.75868 -2.04704,-2.53375 -2.43851,-5.58566 -0.0697,-0.54385 -0.0705,-2.69337 -10e-4,-3.4081 0.19473,-2.00788 0.58682,-3.70187 1.18681,-5.12779 0.10858,-0.25795 0.24354,-0.58157 0.29996,-0.71914 0.22836,-0.55671 1.02671,-2.10464 1.41219,-2.73812 1.39255,-2.4332 3.3732,-4.41927 5.7173,-5.53279 1.49801,-0.90854 3.70483,-1.48115 5.60719,-1.89159 0.17478,-0.0615 0.53746,-0.21314 0.80591,-0.33696 3.154473,4.60158 0.909203,4.06057 1.990583,5.43552 0.37809,0.86931 0.9128,1.52983 1.30293,2.18852 0.19119,0.73999 0.57382,1.00972 1.19009,4.39127 0.11909,0.65348 0.40159,1.69853 0.51224,2.03358 0.13979,0.40992 0.26815,0.82345 0.39731,1.23679 0.65484,1.20287 1.68878,4.59166 1.68878,4.59166 -0.42622,-0.21641 -3.19575,-2.05586 -3.79357,-2.18519 -0.24076,-0.052 -0.27074,-0.28696 -0.5975,-0.35859 -0.32673,-0.0716 -1.39381,0.82555 -1.64447,0.78805 0,0 -1.562873,-3.2601 -2.037023,-4.21678 -1.20279,-2.24423 -0.59875,-2.46178 -0.63759,-1.42761 -0.0776,0.25888 -1.61992,2.82353 -0.74743,3.74973 0.25663,0.35416 0.74834,0.3403 1.30958,0.27282 0.38692,-0.0206 0.73982,-0.0488 0.78419,-0.0627 0.13253,-0.0411 2.755733,0.0893 3.296143,0.16399 0.75533,0.10433 1.46481,0.37698 2.61046,0.83885 0.56609,0.22823 1.50571,0.68455 2.00516,1.05763 0.50437,0.37674 0.51765,0.39374 0.87258,1.11624 0.45059,0.91725 0.49592,1.2209 0.30067,2.01406 -0.14107,0.57305 -0.36095,1.0779 -0.5309,1.21895 -0.084,0.0697 -0.13686,0.047 -0.359,-0.15365 -0.31406,-0.28374 -1.27353,-0.74337 -1.8522,-0.88731 -0.28296,-0.0704 -0.68602,-0.10485 -1.23328,-0.10552 -0.72809,-8e-4 -0.86515,0.017 -1.31321,0.17237 -0.5682,0.19697 -1.58432,0.74183 -2.09489,1.12334 -0.18917,0.14134 -0.709763,0.60981 -1.156873,1.04105 -0.44714,0.43122 -1.00994,0.90855 -1.25069,1.06073 -1.34729,0.8663 -1.972,1.39545 -3.53713,1.77705 -4.45994,0.75395 -5.7186,-0.0375 -8.0644,-1.5347 z"
         style="display:inline;opacity:1;fill:#f9f9f9;fill-opacity:1;stroke-width:0.0626325;stroke-miterlimit:4;stroke-dasharray:none" />
      <path
         inkscape:connector-curvature="0"
         id="path1694"
         d="m 107.43335,337.73364 c -0.83884,8e-4 -1.67319,0.28656 -2.39825,0.6901 -0.26082,0.21807 0.2237,0.42682 0.34792,0.57121 0.71173,0.61976 1.21721,1.56242 1.20585,2.51192 -0.2822,-0.19547 -0.36306,-0.65408 -0.59021,-0.93237 -0.5678,-0.82863 -1.30967,-1.83168 -2.42101,-1.8309 -1.25121,-0.0267 -2.30418,1.10766 -2.33128,2.33231 -0.21421,1.32415 0.66409,2.57512 1.72744,3.27513 -1.02192,-0.006 -1.83289,-0.82537 -2.10035,-1.76617 -0.1699,-0.29678 -0.0633,-0.95473 -0.53476,-0.95233 -0.43338,0.0707 -0.89492,0.14912 -1.29393,0.31491 0.1159,0.9569 0.25039,1.92563 0.51431,2.85396 0.48453,0.88903 1.3514,1.49499 1.93744,2.31512 1.04063,1.46526 2.1853,2.90921 2.81229,4.61237 0.26472,0.75034 0.28787,1.7872 1.15382,2.12039 0.81891,0.40231 1.62208,0.89098 2.48086,1.18118 1.06468,-0.37687 2.09879,-0.92546 3.25766,-0.93819 0.70803,-0.10645 1.47664,0.0515 2.14502,-0.22929 0.69013,-0.51784 1.01987,-1.38513 1.27566,-2.18083 0.0735,-0.91471 0.13599,-1.89237 -0.31488,-2.73011 -0.0901,-0.40181 -0.57921,-0.76909 -0.28848,-1.17632 0.72177,-1.75491 1.33623,-3.78961 0.59736,-5.64284 -1.11812,-2.8046 -4.25137,-4.45791 -7.18248,-4.39925 z"
         style="opacity:1;fill:#f9f9f9;fill-opacity:1;fill-rule:evenodd;stroke:none;stroke-width:0.0252538;stroke-linecap:round;stroke-miterlimit:4;stroke-dasharray:none;stroke-dashoffset:7.55906;stroke-opacity:1;paint-order:stroke markers fill" />
    </g>
    <g
       id="g2"
       transform="translate(-0.16310258,-47.710353)"
       style="fill:#274f6b;fill-opacity:1;stroke:#274f6b;stroke-opacity:1;stroke-width:0.2;stroke-dasharray:none;opacity:1">
      <ellipse
         transform="rotate(5.9502066)"
         ry="0.75003457"
         rx="0.72003323"
         cy="115.28601"
         cx="197.76207"
         id="path1283-6-53-6-1-9"
         style="display:inline;fill:#274f6b;fill-opacity:1;stroke-width:0.2;stroke-miterlimit:4;stroke-dasharray:none;stroke:#274f6b;stroke-opacity:1" />
      <circle
         transform="rotate(5.9502066)"
         r="0.78996956"
         cy="122.63956"
         cx="194.93059"
         id="path1285-3-5-4-4-3"
         style="display:inline;fill:#274f6b;fill-opacity:1;stroke-width:0.2;stroke-miterlimit:4;stroke-dasharray:none;stroke:#274f6b;stroke-opacity:1" />
      <circle
         transform="rotate(5.9502066)"
         r="0.92781055"
         cy="116.83215"
         cx="192.58023"
         id="path1289-8-9-7-6-6"
         style="display:inline;fill:#274f6b;fill-opacity:1;stroke-width:0.2;stroke-miterlimit:4;stroke-dasharray:none;stroke:#274f6b;stroke-opacity:1" />
      <circle
         transform="rotate(5.9502066)"
         r="0.89987159"
         cy="124.02185"
         cx="202.2428"
         id="path1291-0-9-3-7-7"
         style="display:inline;fill:#274f6b;fill-opacity:1;stroke-width:0.2;stroke-miterlimit:4;stroke-dasharray:none;stroke:#274f6b;stroke-opacity:1" />
      <circle
         transform="rotate(5.9502066)"
         r="0.45380244"
         cy="119.7439"
         cx="197.10684"
         id="path1293-6-4-9-7-7"
         style="display:inline;fill:#274f6b;fill-opacity:1;stroke-width:0.2;stroke-miterlimit:4;stroke-dasharray:none;stroke:#274f6b;stroke-opacity:1" />
      <circle
         transform="rotate(5.9502066)"
         r="0.89386022"
         cy="127.36145"
         cx="197.27069"
         id="path1295-5-8-0-6-9"
         style="display:inline;fill:#274f6b;fill-opacity:1;stroke-width:0.2;stroke-miterlimit:4;stroke-dasharray:none;stroke:#274f6b;stroke-opacity:1" />
      <circle
         transform="rotate(5.9502066)"
         r="0.74553257"
         cy="117.31281"
         cx="201.67726"
         id="path1297-4-7-4-9-7"
         style="display:inline;fill:#274f6b;fill-opacity:1;stroke-width:0.2;stroke-miterlimit:4;stroke-dasharray:none;stroke:#274f6b;stroke-opacity:1" />
      <circle
         transform="rotate(5.9502066)"
         style="display:inline;fill:#274f6b;fill-opacity:1;stroke-width:0.2;stroke-miterlimit:4;stroke-dasharray:none;stroke:#274f6b;stroke-opacity:1"
         id="circle1722-0-0-0-6-1"
         cx="197.13737"
         cy="119.80502"
         r="0.68300724" />
      <path
         inkscape:connector-curvature="0"
         id="path2199-4-3-0-1"
         d="m 179.66654,136.19617 3.91583,3.28693 v 0"
         style="display:inline;fill:#274f6b;stroke:#274f6b;stroke-width:0.2;stroke-linecap:butt;stroke-linejoin:miter;stroke-miterlimit:4;stroke-dasharray:none;stroke-opacity:1;fill-opacity:1" />
      <path
         inkscape:connector-curvature="0"
         id="path2201-7-9-5-1"
         d="m 184.69266,135.18829 -1.11029,4.29481"
         style="display:inline;fill:#274f6b;stroke:#274f6b;stroke-width:0.2;stroke-linecap:butt;stroke-linejoin:miter;stroke-miterlimit:4;stroke-dasharray:none;stroke-opacity:1;fill-opacity:1" />
      <path
         sodipodi:nodetypes="ccc"
         inkscape:connector-curvature="0"
         id="path2203-28-3-6-3"
         d="m 188.23423,137.48023 -3.16212,-2.04638 -0.37945,-0.24556"
         style="display:inline;fill:#274f6b;stroke:#274f6b;stroke-width:0.2;stroke-linecap:butt;stroke-linejoin:miter;stroke-miterlimit:4;stroke-dasharray:none;stroke-opacity:1;fill-opacity:1" />
      <path
         inkscape:connector-curvature="0"
         id="path2205-6-6-4-6"
         d="m 186.9077,141.0355 1.32653,-3.55527"
         style="display:inline;fill:#274f6b;stroke:#274f6b;stroke-width:0.2;stroke-linecap:butt;stroke-linejoin:miter;stroke-miterlimit:4;stroke-dasharray:none;stroke-opacity:1;fill-opacity:1" />
      <path
         inkscape:connector-curvature="0"
         id="path2207-7-3-3-8"
         d="m 183.58237,139.4831 4.65186,-2.00287"
         style="display:inline;fill:#274f6b;stroke:#274f6b;stroke-width:0.2;stroke-linecap:butt;stroke-linejoin:miter;stroke-miterlimit:4;stroke-dasharray:none;stroke-opacity:1;fill-opacity:1" />
      <path
         inkscape:connector-curvature="0"
         id="path2209-82-0-7-9"
         d="m 181.14138,142.16178 2.44099,-2.67868"
         style="display:inline;fill:#274f6b;stroke:#274f6b;stroke-width:0.2;stroke-linecap:butt;stroke-linejoin:miter;stroke-miterlimit:4;stroke-dasharray:none;stroke-opacity:1;fill-opacity:1" />
      <path
         inkscape:connector-curvature="0"
         id="path2211-0-6-6-6"
         d="m 183.58237,139.4831 -0.52436,7.33841 -1.91663,-4.65973"
         style="display:inline;fill:none;stroke:#274f6b;stroke-width:0.2;stroke-linecap:butt;stroke-linejoin:miter;stroke-miterlimit:4;stroke-dasharray:none;stroke-opacity:1;fill-opacity:1" />
      <path
         inkscape:connector-curvature="0"
         id="path2213-2-4-3-3"
         d="m 188.23182,144.34961 -5.17381,2.4719"
         style="display:inline;fill:#274f6b;stroke:#274f6b;stroke-width:0.2;stroke-linecap:butt;stroke-linejoin:miter;stroke-miterlimit:4;stroke-dasharray:none;stroke-opacity:1;fill-opacity:1" />
      <path
         inkscape:connector-curvature="0"
         id="path2215-31-6-3-0"
         d="m 188.23182,144.34961 -4.64945,-4.86651"
         style="display:inline;fill:#274f6b;stroke:#274f6b;stroke-width:0.2;stroke-linecap:butt;stroke-linejoin:miter;stroke-miterlimit:4;stroke-dasharray:none;stroke-opacity:1;fill-opacity:1" />
      <path
         inkscape:connector-curvature="0"
         id="path2217-1-6-4-3"
         d="M 188.23182,144.34961 186.9077,141.0355"
         style="display:inline;fill:#274f6b;stroke:#274f6b;stroke-width:0.2;stroke-linecap:butt;stroke-linejoin:miter;stroke-miterlimit:4;stroke-dasharray:none;stroke-opacity:1;fill-opacity:1" />
      <path
         inkscape:connector-curvature="0"
         id="path2219-07-3-8-7"
         d="m 183.58237,139.4831 3.32533,1.5524"
         style="display:inline;fill:#274f6b;stroke:#274f6b;stroke-width:0.2;stroke-linecap:butt;stroke-linejoin:miter;stroke-miterlimit:4;stroke-dasharray:none;stroke-opacity:1;fill-opacity:1" />
      <circle
         transform="rotate(5.9502066)"
         r="0.74553257"
         cy="120.72717"
         cx="200.60054"
         id="path1297-4-7-4-5-1-9"
         style="display:inline;fill:#274f6b;fill-opacity:1;stroke-width:0.2;stroke-miterlimit:4;stroke-dasharray:none;stroke:#274f6b;stroke-opacity:1" />
    </g>
  </g>
</svg>
