<?xml version="1.0" encoding="UTF-8" standalone="no"?>
<!-- Generator: Adobe Illustrator 24.0.1, SVG Export Plug-In . SVG Version: 6.00 Build 0)  -->

<svg
   version="1.1"
   id="SeerCycle"
   x="0px"
   y="0px"
   viewBox="0 0 529.4 839.5"
   style="enable-background:new 0 0 529.4 839.5;"
   xml:space="preserve"
   sodipodi:docname="Sv2_Cycle_wording_desktop.svg"
   inkscape:version="1.3 (0e150ed6c4, 2023-07-21)"
   xmlns:inkscape="http://www.inkscape.org/namespaces/inkscape"
   xmlns:sodipodi="http://sodipodi.sourceforge.net/DTD/sodipodi-0.dtd"
   xmlns:xlink="http://www.w3.org/1999/xlink"
   xmlns="http://www.w3.org/2000/svg"
   xmlns:svg="http://www.w3.org/2000/svg"><defs
   id="defs186"><linearGradient
     id="linearGradient200"
     inkscape:collect="always"><stop
       style="stop-color:#56a7cb;stop-opacity:1;"
       offset="0"
       id="stop199" /><stop
       style="stop-color:#6f738c;stop-opacity:1;"
       offset="1"
       id="stop200" /></linearGradient><rect
     x="680.15366"
     y="551.84881"
     width="827.0834"
     height="176.59162"
     id="rect198" /><rect
     x="-158.65653"
     y="381.46549"
     width="646.35292"
     height="178.66105"
     id="rect187" /><linearGradient
     inkscape:collect="always"
     xlink:href="#linearGradient33"
     id="linearGradient34"
     x1="54.583855"
     y1="117.27345"
     x2="59.974655"
     y2="117.27345"
     gradientUnits="userSpaceOnUse"
     gradientTransform="matrix(8.0528308,0,0,8.0528308,-150.27263,-688.65705)" /><linearGradient
     id="linearGradient33"
     inkscape:collect="always"><stop
       style="stop-color:#6589a7;stop-opacity:1;"
       offset="0"
       id="stop33" /><stop
       style="stop-color:#6a7f9b;stop-opacity:1;"
       offset="1"
       id="stop34" /></linearGradient><linearGradient
     inkscape:collect="always"
     xlink:href="#linearGradient16"
     id="linearGradient17"
     x1="59.136925"
     y1="112.09736"
     x2="64.265396"
     y2="112.09736"
     gradientUnits="userSpaceOnUse"
     gradientTransform="matrix(8.0528308,0,0,8.0528308,-150.27263,-688.65705)" /><linearGradient
     id="linearGradient16"
     inkscape:collect="always"><stop
       style="stop-color:#6a7c98;stop-opacity:1;"
       offset="0"
       id="stop16-1" /><stop
       style="stop-color:#6e748e;stop-opacity:1;"
       offset="1"
       id="stop17" /></linearGradient><linearGradient
     inkscape:collect="always"
     xlink:href="#linearGradient11"
     id="linearGradient10"
     x1="42.833618"
     y1="166.23535"
     x2="55.816872"
     y2="166.23535"
     gradientUnits="userSpaceOnUse"
     gradientTransform="matrix(8.0528308,0,0,8.0528308,-222.0078,-1153.4351)" /><linearGradient
     id="linearGradient11"
     inkscape:collect="always"><stop
       style="stop-color:#50b3da;stop-opacity:1;"
       offset="0"
       id="stop10-1" /><stop
       style="stop-color:#57a5c9;stop-opacity:1;"
       offset="1"
       id="stop11-1" /></linearGradient><linearGradient
     inkscape:collect="always"
     xlink:href="#linearGradient200"
     id="linearGradient32"
     x1="84.179214"
     y1="353.36914"
     x2="114.95023"
     y2="353.36914"
     gradientUnits="userSpaceOnUse" /><linearGradient
     id="linearGradient31"
     inkscape:collect="always"><stop
       style="stop-color:#5aa0c3;stop-opacity:1;"
       offset="0"
       id="stop31" /><stop
       style="stop-color:#6f738c;stop-opacity:1;"
       offset="1"
       id="stop32" /></linearGradient><linearGradient
     inkscape:collect="always"
     xlink:href="#linearGradient35"
     id="linearGradient36"
     x1="58.008595"
     y1="104.30365"
     x2="64.539291"
     y2="104.30365"
     gradientUnits="userSpaceOnUse"
     gradientTransform="matrix(8.0528308,0,0,8.0528308,-149.29411,-688.65705)" /><linearGradient
     id="linearGradient35"
     inkscape:collect="always"><stop
       style="stop-color:#f9f9f9;stop-opacity:1;"
       offset="0"
       id="stop35" /><stop
       style="stop-color:#a8d8e2;stop-opacity:1;"
       offset="1"
       id="stop36" /></linearGradient><linearGradient
     inkscape:collect="always"
     xlink:href="#linearGradient31"
     id="linearGradient186"
     gradientUnits="userSpaceOnUse"
     x1="84.179214"
     y1="353.36914"
     x2="114.95023"
     y2="353.36914" /><linearGradient
     inkscape:collect="always"
     xlink:href="#linearGradient31"
     id="linearGradient187"
     gradientUnits="userSpaceOnUse"
     x1="84.179214"
     y1="353.36914"
     x2="114.95023"
     y2="353.36914" /></defs><sodipodi:namedview
   id="namedview186"
   pagecolor="#505050"
   bordercolor="#eeeeee"
   borderopacity="1"
   inkscape:showpageshadow="0"
   inkscape:pageopacity="0"
   inkscape:pagecheckerboard="0"
   inkscape:deskcolor="#505050"
   inkscape:zoom="1.4496724"
   inkscape:cx="289.72062"
   inkscape:cy="354.90776"
   inkscape:window-width="2560"
   inkscape:window-height="1494"
   inkscape:window-x="-11"
   inkscape:window-y="-11"
   inkscape:window-maximized="1"
   inkscape:current-layer="g187" />&#10;<style
   type="text/css"
   id="style1">&#10;	.st0{fill:url(#SVGID_1_);}&#10;	.st1{fill:url(#SVGID_2_);}&#10;	.st2{fill:url(#SVGID_3_);}&#10;	.st3{fill:#FFFFFF;}&#10;	.st4{fill:url(#SVGID_4_);}&#10;	.st5{fill:url(#SVGID_5_);}&#10;</style>&#10;<linearGradient
   id="SVGID_1_"
   gradientUnits="userSpaceOnUse"
   x1="494.0565"
   y1="813.712"
   x2="113.5366"
   y2="164.262"
   gradientTransform="matrix(1 0 0 -1 0 842)">&#10;	<stop
   offset="1.000000e-02"
   style="stop-color:#35435F"
   id="stop1" />&#10;	<stop
   offset="1"
   style="stop-color:#000000"
   id="stop2" />&#10;</linearGradient>&#10;<rect
   class="st0"
   width="529.4"
   height="839.5"
   id="rect2" />&#10;<linearGradient
   id="SVGID_2_"
   gradientUnits="userSpaceOnUse"
   x1="1.5966"
   y1="300.7983"
   x2="620.0366"
   y2="819.7283"
   gradientTransform="matrix(1,0,0,-1,10.450012,842)">&#10;	<stop
   offset="4.000000e-02"
   style="stop-color:#44CCF9"
   id="stop3" />&#10;	<stop
   offset="0.12"
   style="stop-color:#48C4EF"
   id="stop4" />&#10;	<stop
   offset="0.25"
   style="stop-color:#53AED4"
   id="stop5" />&#10;	<stop
   offset="0.42"
   style="stop-color:#648BA9"
   id="stop6" />&#10;	<stop
   offset="0.63"
   style="stop-color:#7C596D"
   id="stop7" />&#10;	<stop
   offset="0.85"
   style="stop-color:#9B1B21"
   id="stop8" />&#10;	<stop
   offset="0.95"
   style="stop-color:#A80000"
   id="stop9" />&#10;</linearGradient>&#10;<path
   class="st1"
   d="m 75.650012,327.1 c 0,-7.8 4.8,-11.6 11,-11.6 4.5,0 8,2.1 9.7,6.1 1.7,-4 5.199998,-6.1 9.699998,-6.1 6.2,0 11,3.9 11,11.6 v 21.7 h -3.6 v -21.7 c 0,-5.5 -3.3,-8.4 -7.6,-8.4 -4.3,0 -7.599998,3 -7.599998,8.4 v 21.7 h -3.8 v -21.7 c 0,-5.4 -3.2,-8.4 -7.6,-8.4 -4.4,0 -7.6,2.8 -7.6,8.4 v 21.7 h -3.6 z m 47.099998,-11 h 24 v 3.3 h -20.4 v 11.1 h 17.5 v 3.3 h -17.5 v 11.6 h 20.4 v 3.3 h -24 z m 38.8,3.3 h -11.1 v -3.3 h 25.8 v 3.3 h -11.1 v 29.4 h -3.6 z m 19.4,-3.3 h 3.6 v 14.5 h 21.2 v -14.5 h 3.6 v 32.7 h -3.6 v -15 h -21.2 v 15 h -3.6 z m 33.4,16.3 c 0,-9.8 7.2,-17 17.4,-17 10.2,0 17.4,7.2 17.4,17 0,9.8 -7.2,17 -17.4,17 -10.2,0 -17.4,-7.2 -17.4,-17 z m 31.2,0 c 0,-7.9 -5.6,-13.7 -13.8,-13.7 -8.2,0 -13.8,5.8 -13.8,13.7 0,7.9 5.6,13.7 13.8,13.7 8.2,0 13.8,-5.8 13.8,-13.7 z m 8.7,-16.3 h 11.7 c 11.3,0 17.3,6.5 17.3,16.4 0,9.9 -6,16.4 -17.4,16.4 h -11.7 z m 11.7,29.4 c 9.2,0 13.7,-5.2 13.7,-13 0,-7.8 -4.5,-13 -13.8,-13 h -8.1 v 26.1 z m 20.7,-13 c 0,-9.8 7.2,-17 17.4,-17 10.2,0 17.4,7.2 17.4,17 0,9.8 -7.2,17 -17.4,17 -10.2,0 -17.4,-7.3 -17.4,-17 z m 31.2,0 c 0,-7.9 -5.6,-13.7 -13.8,-13.7 -8.2,0 -13.8,5.8 -13.8,13.7 0,7.9 5.6,13.7 13.8,13.7 8.2,0 13.8,-5.9 13.8,-13.7 z m 8.7,-16.4 h 3.6 v 29.4 h 19.8 v 3.3 h -23.4 v -32.7 z m 24.3,16.4 c 0,-9.8 7.2,-17 17.4,-17 10.2,0 17.4,7.2 17.4,17 0,9.8 -7.2,17 -17.4,17 -10.2,0 -17.4,-7.3 -17.4,-17 z m 31.2,0 c 0,-7.9 -5.6,-13.7 -13.8,-13.7 -8.2,0 -13.8,5.8 -13.8,13.7 0,7.9 5.6,13.7 13.8,13.7 8.2,0 13.8,-5.9 13.8,-13.7 z m 7,0 c 0,-9.8 7.2,-17 17.4,-17 7.9,0 14.1,4.4 16.4,10.9 h -4 c -2.1,-4.6 -6.6,-7.6 -12.5,-7.6 -8.1,0 -13.8,5.8 -13.8,13.7 0,7.9 5.6,13.7 13.8,13.7 7.1,0 12.3,-4 13.5,-10.5 h -15.6 v -3.3 h 19.4 v 1.6 c -0.8,9 -7.7,15.4 -17.4,15.4 -10,0 -17.2,-7.2 -17.2,-16.9 z m 47.6,2 -13.5,-18.4 h 4.4 l 11,15.4 10.9,-15.4 h 4.3 l -13.4,18.3 v 14.4 h -3.6 z"
   id="path9"
   style="fill:url(#SVGID_2_)" />&#10;<linearGradient
   id="SVGID_3_"
   gradientUnits="userSpaceOnUse"
   x1="-130.779"
   y1="655.7117"
   x2="790.271"
   y2="579.8718"
   gradientTransform="matrix(1 0 0 -1 0 842)">&#10;	<stop
   offset="4.000000e-02"
   style="stop-color:#44CCF9"
   id="stop10" />&#10;	<stop
   offset="0.12"
   style="stop-color:#48C4EF"
   id="stop11" />&#10;	<stop
   offset="0.25"
   style="stop-color:#53AED4"
   id="stop12" />&#10;	<stop
   offset="0.42"
   style="stop-color:#648BA9"
   id="stop13" />&#10;	<stop
   offset="0.63"
   style="stop-color:#7C596D"
   id="stop14" />&#10;	<stop
   offset="0.85"
   style="stop-color:#9B1B21"
   id="stop15" />&#10;	<stop
   offset="0.95"
   style="stop-color:#A80000"
   id="stop16" />&#10;</linearGradient>&#10;&#10;&#10;&#10;&#10;&#10;&#10;&#10;&#10;&#10;&#10;&#10;&#10;&#10;&#10;&#10;&#10;&#10;&#10;&#10;&#10;&#10;&#10;&#10;&#10;&#10;&#10;&#10;&#10;&#10;&#10;&#10;&#10;&#10;&#10;&#10;&#10;&#10;&#10;&#10;&#10;&#10;&#10;&#10;&#10;&#10;&#10;&#10;&#10;&#10;&#10;&#10;&#10;&#10;&#10;&#10;&#10;&#10;&#10;&#10;&#10;&#10;&#10;&#10;&#10;&#10;&#10;&#10;&#10;&#10;&#10;&#10;&#10;&#10;&#10;&#10;&#10;&#10;&#10;&#10;&#10;&#10;&#10;&#10;&#10;&#10;&#10;&#10;&#10;&#10;&#10;&#10;&#10;&#10;&#10;&#10;&#10;&#10;&#10;&#10;&#10;&#10;&#10;&#10;&#10;&#10;&#10;&#10;&#10;&#10;&#10;&#10;&#10;&#10;&#10;&#10;&#10;&#10;&#10;&#10;&#10;&#10;&#10;&#10;&#10;&#10;&#10;&#10;&#10;&#10;&#10;&#10;&#10;&#10;&#10;&#10;&#10;&#10;&#10;&#10;&#10;&#10;&#10;&#10;&#10;&#10;&#10;&#10;&#10;&#10;&#10;&#10;&#10;&#10;&#10;&#10;&#10;&#10;&#10;&#10;&#10;&#10;&#10;&#10;<linearGradient
   id="SVGID_4_"
   gradientUnits="userSpaceOnUse"
   x1="88"
   y1="253.535"
   x2="676.27"
   y2="253.535"
   gradientTransform="matrix(1 0 0 -1 0 842)">&#10;	<stop
   offset="4.000000e-02"
   style="stop-color:#44CCF9"
   id="stop178" />&#10;	<stop
   offset="0.12"
   style="stop-color:#48C4EF"
   id="stop179" />&#10;	<stop
   offset="0.25"
   style="stop-color:#53AED4"
   id="stop180" />&#10;	<stop
   offset="0.42"
   style="stop-color:#648BA9"
   id="stop181" />&#10;	<stop
   offset="0.63"
   style="stop-color:#7C596D"
   id="stop182" />&#10;	<stop
   offset="0.85"
   style="stop-color:#9B1B21"
   id="stop183" />&#10;	<stop
   offset="0.95"
   style="stop-color:#A80000"
   id="stop184" />&#10;</linearGradient>&#10;<path
   class="st4"
   d="M88,586.4c0-5.3,3.8-9.1,9.3-9.1s9.3,3.8,9.3,9.1s-3.8,9.1-9.3,9.1S88,591.6,88,586.4z M104.7,586.4  c0-4.1-3.3-7.4-7.3-7.4s-7.4,3.3-7.4,7.3c0,4.1,3.3,7.4,7.3,7.4c0,0,0,0,0,0c3.9,0.1,7.2-2.9,7.3-6.8  C104.7,586.7,104.7,586.5,104.7,586.4L104.7,586.4z M108.8,588.8v-6.9h1.8v6.9c0,3.2,1.9,5,4.7,5s4.7-1.8,4.7-5v-6.9h1.8v6.9  c0,4.4-2.6,6.7-6.5,6.7S108.8,593.2,108.8,588.8L108.8,588.8z M124.5,587.2c0-3.8,2.3-5.7,5.6-5.7s5.5,1.8,5.5,5.7v0.2h-1.8v-0.2  c0-2.8-1.5-4-3.8-4s-3.8,1.2-3.8,4v7.9h-1.8L124.5,587.2z M144.5,588.6c-0.2-3.7,2.7-6.8,6.4-7c0.2,0,0.4,0,0.6,0  c3.8-0.2,6.9,2.7,7.1,6.4c0,0.2,0,0.4,0,0.6c0.1,3.7-2.7,6.8-6.4,6.9c-0.1,0-0.3,0-0.4,0c-2.3,0.1-4.5-1.1-5.6-3.2v8.5h-1.8V588.6z   M156.9,588.5c0-2.9-2.4-5.3-5.3-5.3c-2.9,0-5.3,2.4-5.3,5.3c0,2.9,2.4,5.3,5.3,5.3c0,0,0,0,0,0c2.8,0.1,5.2-2.1,5.2-4.9  C156.8,588.7,156.8,588.6,156.9,588.5L156.9,588.5z M160.8,587.2c0-3.8,2.3-5.7,5.6-5.7s5.5,1.8,5.5,5.7v0.2h-1.8v-0.2  c0-2.8-1.5-4-3.8-4s-3.8,1.2-3.8,4v7.9h-1.8L160.8,587.2z M173.1,588.5c-0.1-3.9,3.1-7.2,7-7.2c3.9-0.1,7.2,3.1,7.2,7  s-3.1,7.2-7,7.2c0,0-0.1,0-0.1,0c-3.7,0.2-7-2.6-7.2-6.4C173,588.9,173,588.7,173.1,588.5L173.1,588.5z M185.5,588.5  c0-2.9-2.4-5.3-5.3-5.3c-2.9,0-5.3,2.4-5.3,5.3c0,2.9,2.4,5.3,5.3,5.3c0,0,0,0,0,0c2.8,0.1,5.2-2.1,5.2-4.9  C185.5,588.7,185.5,588.6,185.5,588.5L185.5,588.5z M188.9,588.5c-0.1-3.7,2.8-6.9,6.6-7c0.2,0,0.4,0,0.6,0c3.1-0.2,6,1.9,6.8,4.9  H201c-1.1-2.7-4.2-4-6.9-2.9s-4,4.2-2.9,6.9s4.2,4,6.9,2.9c1.3-0.5,2.3-1.6,2.9-2.9h1.8c-0.8,3-3.7,5.1-6.8,4.9  c-3.7,0.2-6.9-2.6-7.2-6.4C188.8,588.9,188.8,588.7,188.9,588.5L188.9,588.5z M204.4,588.5c0-3.9,3.2-7.1,7.1-7.1  c3.9,0,7.1,3.2,7.1,7.1l0,0v0.6h-12.4c0.2,2.8,2.5,4.9,5.3,4.7c1.8,0.1,3.6-0.8,4.5-2.4h2c-1.7,3.6-6,5.1-9.6,3.3  C206,593.6,204.5,591.2,204.4,588.5L204.4,588.5z M216.7,587.5c-0.6-2.9-3.3-4.8-6.2-4.2c-2.1,0.4-3.8,2.1-4.2,4.2H216.7z   M220.2,591.4h1.8c0.1,1.4,1.4,2.4,3.6,2.4s3.6-1.1,3.6-2.5c0-1.6-1.7-1.8-3.6-2c-2.4-0.3-5.1-0.7-5.1-3.6c0-2.5,1.9-4.2,5.1-4.2  s5,1.7,5.1,4h-1.8c-0.1-1.3-1.3-2.3-3.3-2.3s-3.2,1-3.2,2.4c0,1.6,1.7,1.8,3.6,2.1c2.1,0.3,5.1,0.6,5.1,3.6c0,2.5-2.1,4.3-5.4,4.3  S220.2,593.7,220.2,591.4L220.2,591.4z M232.7,591.4h1.8c0.1,1.4,1.4,2.4,3.6,2.4s3.6-1.1,3.6-2.5c0-1.6-1.7-1.8-3.6-2  c-2.4-0.3-5.1-0.7-5.1-3.6c0-2.5,2-4.2,5.1-4.2s5,1.7,5.1,4h-1.8c-0.1-1.3-1.3-2.3-3.3-2.3s-3.2,1-3.2,2.4c0,1.6,1.7,1.8,3.6,2.1  c2.1,0.3,5.1,0.6,5.1,3.6c0,2.5-2.1,4.3-5.4,4.3S232.7,593.7,232.7,591.4L232.7,591.4z M252.8,578c0-0.8,0.6-1.4,1.4-1.4  c0.8,0,1.4,0.6,1.4,1.4c0,0.8-0.6,1.4-1.4,1.4c0,0,0,0,0,0C253.4,579.4,252.8,578.8,252.8,578C252.8,578,252.8,578,252.8,578z   M253.3,581.9h1.8v13.2h-1.8V581.9z M258.1,588.2c0-4.4,2.6-6.7,6.5-6.7s6.5,2.3,6.5,6.7v6.9h-1.8v-6.9c0-3.3-1.9-5-4.7-5  s-4.7,1.7-4.7,5v6.9h-1.8L258.1,588.2z M280.4,588.6c0-3.9,3.2-7.1,7.1-7.1s7.1,3.2,7.1,7.1v6.5h-1.7v-3.3c-0.9,2.3-3.2,3.7-5.7,3.6  c-3.7,0.1-6.7-2.8-6.8-6.4C280.4,588.9,280.4,588.7,280.4,588.6L280.4,588.6z M292.8,588.5c0-2.9-2.4-5.3-5.3-5.3  c-2.9,0-5.3,2.4-5.3,5.3c0,2.9,2.4,5.3,5.3,5.3c0,0,0,0,0,0c2.8,0.1,5.2-2.1,5.3-4.9C292.8,588.8,292.8,588.7,292.8,588.5  L292.8,588.5z M304.3,588.2c0-4.4,2.6-6.7,6.5-6.7s6.5,2.3,6.5,6.7v6.9h-1.8v-6.9c0-3.3-1.9-5-4.7-5s-4.7,1.7-4.7,5v6.9h-1.8  L304.3,588.2z M320,588.8v-6.9h1.8v6.9c0,3.2,1.9,5,4.7,5s4.7-1.8,4.7-5v-6.9h1.8v6.9c0,4.4-2.6,6.7-6.5,6.7S320,593.2,320,588.8  L320,588.8z M335.7,590.3v-13h1.8v4.7h7.8v1.6h-7.8v6.7c0,2.4,1.3,3.5,3.4,3.5s3.4-1.1,3.4-3.5V590h1.7v0.3c0,3.5-2.1,5.2-5.1,5.2  S335.7,593.7,335.7,590.3L335.7,590.3z M347.8,591.4h1.8c0.1,1.4,1.4,2.4,3.6,2.4s3.6-1.1,3.6-2.5c0-1.6-1.7-1.8-3.6-2  c-2.4-0.3-5.1-0.7-5.1-3.6c0-2.5,2-4.2,5-4.2s5,1.7,5.1,4h-1.8c-0.1-1.3-1.3-2.3-3.3-2.3s-3.2,1-3.2,2.4c0,1.6,1.7,1.8,3.6,2.1  c2.1,0.3,5.1,0.6,5.1,3.6c0,2.5-2.1,4.3-5.4,4.3S347.9,593.7,347.8,591.4L347.8,591.4z M361.2,576.2h1.8v8.3c0.9-1.9,2.9-3,5-2.9  c3.5,0,6.3,2.1,6.3,6.7v6.9h-1.8v-6.9c0-3.3-1.9-5-4.7-5s-4.7,1.8-4.7,5v6.9h-1.8L361.2,576.2z M376.3,588.5c0-3.9,3.2-7.1,7.1-7.1  c3.9,0,7.1,3.2,7.1,7.1v0.6h-12.3c0.2,2.8,2.5,4.9,5.3,4.7c1.8,0.1,3.6-0.8,4.5-2.4h2c-1.7,3.6-6,5.1-9.6,3.3  C378,593.6,376.4,591.2,376.3,588.5L376.3,588.5z M388.6,587.5c-0.6-2.9-3.3-4.8-6.2-4.2c-2.1,0.4-3.8,2.1-4.2,4.2H388.6z   M393.1,576.2h1.8v19h-1.8V576.2z M398.5,576.2h1.8v19h-1.8V576.2z M404,584.3c0-0.7,0.6-1.4,1.3-1.4c0,0,0,0,0.1,0  c0.8,0,1.4,0.6,1.4,1.4s-0.6,1.4-1.4,1.4C404.6,585.7,404,585,404,584.3L404,584.3z M404,594.2c0-0.7,0.6-1.4,1.3-1.4c0,0,0,0,0.1,0  c0.8,0,1.4,0.6,1.4,1.4s-0.6,1.4-1.4,1.4C404.6,595.5,404,594.9,404,594.2L404,594.2z"
   id="path184" />&#10;<g
   id="_07">&#10;	<g
   id="g186">&#10;		&#10;			<linearGradient
   id="SVGID_5_"
   gradientUnits="userSpaceOnUse"
   x1="1374.7106"
   y1="98.6617"
   x2="1454.6105"
   y2="98.6617"
   gradientTransform="matrix(1 1.745329e-04 1.745329e-04 -1 -1011.8777 711.791)">&#10;			<stop
   offset="0"
   style="stop-color:#FFFFFF"
   id="stop185" />&#10;			<stop
   offset="1"
   style="stop-color:#FFFFFF"
   id="stop186" />&#10;		</linearGradient>&#10;		<path
   class="st5"
   d="M439.1,617c-2,0-3.6-1.6-3.6-3.6c0-2,1.6-3.6,3.6-3.6c2,0,3.6,1.6,3.6,3.6l0,0    C442.8,615.4,441.1,617,439.1,617z M426.4,613.4c0-2-1.6-3.6-3.6-3.6s-3.6,1.6-3.6,3.6c0,2,1.6,3.6,3.6,3.6c0,0,0,0,0,0    C424.8,617,426.4,615.4,426.4,613.4C426.4,613.4,426.4,613.4,426.4,613.4L426.4,613.4z M415.1,613.4c0-2-1.6-3.6-3.6-3.6    s-3.6,1.6-3.6,3.6c0,2,1.6,3.6,3.6,3.6c0,0,0,0,0,0C413.5,617,415.2,615.4,415.1,613.4C415.2,613.4,415.2,613.4,415.1,613.4    L415.1,613.4z M403.9,613.4c0-2-1.6-3.6-3.6-3.6s-3.6,1.6-3.6,3.6c0,2,1.6,3.6,3.6,3.6c0,0,0,0,0,0    C402.3,617,403.9,615.4,403.9,613.4C403.9,613.4,403.9,613.4,403.9,613.4L403.9,613.4z M392.6,613.4c0-2-1.6-3.6-3.6-3.6    s-3.6,1.6-3.6,3.6c0,2,1.6,3.6,3.6,3.6c0,0,0,0,0,0C391,617,392.6,615.4,392.6,613.4C392.6,613.4,392.6,613.4,392.6,613.4    L392.6,613.4z M381.3,613.4c0-2-1.6-3.6-3.6-3.6s-3.6,1.6-3.6,3.6c0,2,1.6,3.6,3.6,3.6c0,0,0,0,0,0    C379.7,617,381.3,615.4,381.3,613.4C381.3,613.4,381.3,613.4,381.3,613.4L381.3,613.4z M370.1,613.4c0-2-1.6-3.6-3.6-3.6    s-3.6,1.6-3.6,3.6c0,2,1.6,3.6,3.6,3.6c0,0,0,0,0,0C368.4,617,370.1,615.4,370.1,613.4C370.1,613.4,370.1,613.4,370.1,613.4    L370.1,613.4z M435.6,620.6c0-2-1.6-3.6-3.6-3.6s-3.6,1.6-3.6,3.6c0,2,1.6,3.6,3.6,3.6c0,0,0,0,0,0    C433.9,624.2,435.6,622.6,435.6,620.6C435.6,620.6,435.6,620.6,435.6,620.6L435.6,620.6z M428.4,627.8c0-2-1.6-3.6-3.6-3.6    s-3.6,1.6-3.6,3.6c0,2,1.6,3.6,3.6,3.6c0,0,0,0,0,0C426.7,631.4,428.4,629.8,428.4,627.8C428.4,627.8,428.4,627.8,428.4,627.8    L428.4,627.8z M432,602.6c-2,0-3.6,1.6-3.6,3.6c0,2,1.6,3.6,3.6,3.6c2,0,3.6-1.6,3.6-3.6l0,0C435.6,604.2,434,602.6,432,602.6    C432,602.6,432,602.6,432,602.6L432,602.6z M424.8,595.4c-2,0-3.6,1.6-3.6,3.6c0,2,1.6,3.6,3.6,3.6c2,0,3.6-1.6,3.6-3.6l0,0    C428.4,597,426.8,595.4,424.8,595.4C424.8,595.4,424.8,595.3,424.8,595.4L424.8,595.4z"
   id="path186" />&#10;	</g>&#10;</g>&#10;<g
   id="g187"
   transform="translate(15.035836,-16)"><path
     style="display:inline;fill:url(#linearGradient34);fill-opacity:1;stroke-width:0.343679;stroke-miterlimit:4;stroke-dasharray:none"
     d="m 309.39743,267.14737 c -4.66025,-0.13359 -10.52472,-0.46706 -13.03181,-0.74246 l -4.55845,-0.49928 -1.29588,-1.38888 c -2.31976,-2.48631 -1.59517,-4.16839 4.23532,-9.83258 4.70921,-4.57473 6.73394,-6.03883 11.17636,-8.08103 2.43509,-1.11942 3.75786,-1.48244 6.96224,-1.91053 4.92776,-0.65871 4.86051,-0.65871 7.55934,0.0403 3.06041,0.79563 5.50122,2.24464 8.83131,5.24086 3.47898,3.13038 3.92051,4.17331 3.00242,7.09149 -0.98641,3.13554 -2.86561,5.68835 -5.36207,7.28435 -4.42109,2.82679 -6.24336,3.1175 -17.51878,2.79466 z"
     id="path988-3-2-2-3-1-7-32-0"
     inkscape:connector-curvature="0" /><path
     style="display:inline;fill:url(#linearGradient17);fill-opacity:0.992157;stroke-width:0.343679;stroke-miterlimit:4;stroke-dasharray:none"
     d="m 334.47299,224.59235 c -4.27026,-4.31705 -10.28669,-5.68554 -8.03826,-6.68224 2.57546,-1.15992 14.72275,-3.87123 15.62885,-4.3114 0.90587,-0.44049 1.81599,-0.75938 2.02207,-0.71027 0.20539,0.0484 1.00089,0.60557 1.76656,1.2337 1.96239,1.61145 4.44966,2.01683 8.33911,1.35899 1.64639,-0.27781 3.18448,-0.63859 3.41745,-0.80044 0.24722,-0.17237 -1.36464,-0.37849 -3.87373,-0.49767 -5.26293,-0.24884 -5.273,-0.25206 -7.13135,-1.83822 -1.68973,-1.44291 -2.37889,-3.01925 -3.52189,-8.05379 -1.23386,-5.43479 -0.65149,-7.34838 2.81115,-9.2404 2.9992,-1.6385 6.72331,-2.16548 11.22083,-1.58752 2.052,0.26333 4.1004,0.69012 4.55257,0.9466 1.5732,0.89402 3.20487,4.57096 4.33211,9.76028 1.59293,7.33378 1.61249,7.9483 0.33016,10.42309 -1.64085,3.16799 -6.04719,7.62008 -13.55211,13.69289 -3.33291,2.6968 -12.16677,6.65132 -12.9677,6.56417 -1.412,-4.08939 -2.12871,-6.46457 -5.33605,-10.25826 z"
     id="path984-6-6-95-1-7-1-3-5"
     inkscape:connector-curvature="0"
     sodipodi:nodetypes="cccccccccccccccccc" /><path
     style="display:inline;fill:url(#linearGradient10);fill-rule:evenodd;stroke:none;stroke-width:0.195974;stroke-linecap:round;stroke-miterlimit:4;stroke-dasharray:none;stroke-dashoffset:7.55906;stroke-opacity:1;paint-order:stroke markers fill"
     d="m 163.53163,104.98787 c -15.27235,0.0927 -27.74998,6.64223 -35.55752,20.17593 -2.7614,4.45942 -2.42552,7.39034 2.87541,10.1473 5.00774,2.66242 5.35031,-2.39951 7.895,-6.19408 5.92665,-8.24353 14.88873,-14.20582 25.06968,-13.36074 5.60662,-0.31084 13.90079,3.03468 17.98816,7.37757 3.45757,2.86689 4.20133,10.98301 2.25335,15.17379 -3.21363,9.50379 -11.69818,15.57005 -18.10179,22.85304 -12.13385,12.92149 -25.73241,24.77043 -35.49132,39.70561 -4.919,7.64616 -8.55373,16.65768 -7.28323,25.90958 0.59914,9.91666 10.11541,20.66357 22.74675,27.61751 11.80232,5.37389 24.82544,11.31261 53.88253,11.07168 10.82012,0.0403 31.29413,-4.68088 26.87866,-11.10358 3.33476,-3.77128 -4.56297,-9.91084 -11.378,-8.2006 -9.548,6.92737 -44.24129,4.32494 -61.00196,-2.77878 -4.2829,-2.09157 -12.41184,-7.4566 -15.09279,-13.47723 -2.66829,-7.78152 -2.42606,-14.91705 4.01346,-23.26751 4.84717,-6.28564 6.14529,-9.15502 9.69818,-13.14634 12.56791,-13.86947 25.90225,-26.40128 37.75748,-40.91023 8.66774,-10.85625 11.74119,-25.19311 2.2291,-35.96601 -7.64028,-8.55669 -18.41448,-11.6079 -29.3814,-11.62691 z"
     id="path18216-1-03-4"
     inkscape:connector-curvature="0"
     sodipodi:nodetypes="ccccccccccccccccsccccc" /><g
     id="g1823-8-1"
     style="display:inline;fill:url(#linearGradient32);fill-opacity:1"
     transform="matrix(5.4878757,0,0,5.4866275,-254.42831,-1752.2368)"><path
       sodipodi:nodetypes="ccccccccccccccccccccccccccccccccccccccc"
       inkscape:connector-curvature="0"
       id="path982-1-4-7-3-6-9-91-4"
       d="m 86.670427,367.18197 c -2.07886,-1.75868 -2.04704,-2.53375 -2.43851,-5.58566 -0.0697,-0.54385 -0.0705,-2.69337 -10e-4,-3.4081 0.19473,-2.00788 0.58682,-3.70187 1.18681,-5.12779 0.10858,-0.25795 0.24354,-0.58157 0.29996,-0.71914 0.22836,-0.55671 1.02671,-2.10464 1.41219,-2.73812 1.39255,-2.4332 3.3732,-4.41927 5.7173,-5.53279 1.49801,-0.90854 3.70483,-1.48115 5.60719,-1.89159 0.17478,-0.0615 0.53746,-0.21314 0.80591,-0.33696 3.154473,4.60158 0.909203,4.06057 1.990583,5.43552 0.37809,0.86931 0.9128,1.52983 1.30293,2.18852 0.19119,0.73999 0.57382,1.00972 1.19009,4.39127 0.11909,0.65348 0.40159,1.69853 0.51224,2.03358 0.13979,0.40992 0.26815,0.82345 0.39731,1.23679 0.65484,1.20287 1.68878,4.59166 1.68878,4.59166 -0.42622,-0.21641 -3.19575,-2.05586 -3.79357,-2.18519 -0.24076,-0.052 -0.27074,-0.28696 -0.5975,-0.35859 -0.32673,-0.0716 -1.39381,0.82555 -1.64447,0.78805 0,0 -1.562873,-3.2601 -2.037023,-4.21678 -1.20279,-2.24423 -0.59875,-2.46178 -0.63759,-1.42761 -0.0776,0.25888 -1.61992,2.82353 -0.74743,3.74973 0.25663,0.35416 0.74834,0.3403 1.30958,0.27282 0.38692,-0.0206 0.73982,-0.0488 0.78419,-0.0627 0.13253,-0.0411 2.755733,0.0893 3.296143,0.16399 0.75533,0.10433 1.46481,0.37698 2.61046,0.83885 0.56609,0.22823 1.50571,0.68455 2.00516,1.05763 0.50437,0.37674 0.51765,0.39374 0.87258,1.11624 0.45059,0.91725 0.49592,1.2209 0.30067,2.01406 -0.14107,0.57305 -0.36095,1.0779 -0.5309,1.21895 -0.084,0.0697 -0.13686,0.047 -0.359,-0.15365 -0.31406,-0.28374 -1.27353,-0.74337 -1.8522,-0.88731 -0.28296,-0.0704 -0.68602,-0.10485 -1.23328,-0.10552 -0.72809,-8e-4 -0.86515,0.017 -1.31321,0.17237 -0.5682,0.19697 -1.58432,0.74183 -2.09489,1.12334 -0.18917,0.14134 -0.709763,0.60981 -1.156873,1.04105 -0.44714,0.43122 -1.00994,0.90855 -1.25069,1.06073 -1.34729,0.8663 -1.972,1.39545 -3.53713,1.77705 -4.45994,0.75395 -5.7186,-0.0375 -8.0644,-1.5347 z"
       style="display:inline;opacity:1;fill:url(#linearGradient186);fill-opacity:1;stroke-width:0.0626325;stroke-miterlimit:4;stroke-dasharray:none" /><path
       inkscape:connector-curvature="0"
       id="path1694-42-0"
       d="m 107.43335,337.73364 c -0.83884,8e-4 -1.67319,0.28656 -2.39825,0.6901 -0.26082,0.21807 0.2237,0.42682 0.34792,0.57121 0.71173,0.61976 1.21721,1.56242 1.20585,2.51192 -0.2822,-0.19547 -0.36306,-0.65408 -0.59021,-0.93237 -0.5678,-0.82863 -1.30967,-1.83168 -2.42101,-1.8309 -1.25121,-0.0267 -2.30418,1.10766 -2.33128,2.33231 -0.21421,1.32415 0.66409,2.57512 1.72744,3.27513 -1.02192,-0.006 -1.83289,-0.82537 -2.10035,-1.76617 -0.1699,-0.29678 -0.0633,-0.95473 -0.53476,-0.95233 -0.43338,0.0707 -0.89492,0.14912 -1.29393,0.31491 0.1159,0.9569 0.25039,1.92563 0.51431,2.85396 0.48453,0.88903 1.3514,1.49499 1.93744,2.31512 1.04063,1.46526 2.1853,2.90921 2.81229,4.61237 0.26472,0.75034 0.28787,1.7872 1.15382,2.12039 0.81891,0.40231 1.62208,0.89098 2.48086,1.18118 1.06468,-0.37687 2.09879,-0.92546 3.25766,-0.93819 0.70803,-0.10645 1.47664,0.0515 2.14502,-0.22929 0.69013,-0.51784 1.01987,-1.38513 1.27566,-2.18083 0.0735,-0.91471 0.13599,-1.89237 -0.31488,-2.73011 -0.0901,-0.40181 -0.57921,-0.76909 -0.28848,-1.17632 0.72177,-1.75491 1.33623,-3.78961 0.59736,-5.64284 -1.11812,-2.8046 -4.25137,-4.45791 -7.18248,-4.39925 z"
       style="opacity:1;fill:url(#linearGradient187);fill-opacity:1;fill-rule:evenodd;stroke:none;stroke-width:0.0252538;stroke-linecap:round;stroke-miterlimit:4;stroke-dasharray:none;stroke-dashoffset:7.55906;stroke-opacity:1;paint-order:stroke markers fill" /></g><path
     class="st10"
     d="m 335.22973,135.28839 17.8913,-0.6853 c 0.29714,1.85699 1.19191,3.6319 2.67797,5.00853 3.52979,3.26977 9.04011,3.0592 12.30988,-0.47028 3.26986,-3.52971 3.05918,-9.04011 -0.47029,-12.30995 -3.52955,-3.2697 -9.04003,-3.05911 -12.30987,0.47028 -1.37648,1.48606 -2.1332,3.32453 -2.28774,5.19835 l -17.89136,0.6853 c -0.29716,-1.85699 -1.19182,-3.63192 -2.6795,-5.01 -3.52973,-3.26986 -9.04003,-3.05912 -12.30989,0.4703 -3.26968,3.52971 -3.0592,9.03994 0.47028,12.30986 1.48615,1.37663 3.32406,2.13376 5.19835,2.28765 l 0.66919,17.50268 c -1.85681,0.29713 -3.63183,1.1919 -5.00846,2.67787 -3.26984,3.52972 -3.0591,9.04012 0.47029,12.30998 3.52963,3.26983 9.03995,3.05918 12.3098,-0.4703 3.26984,-3.52971 3.05927,-9.04011 -0.47029,-12.30995 -1.48592,-1.37655 -3.32396,-2.13384 -5.19827,-2.28774 l -0.66919,-17.50259 c 1.52876,-0.24481 3.00227,-0.89659 4.24393,-1.95015 l 7.86681,7.28748 c -1.40489,2.24217 -1.0666,5.235 0.94564,7.09908 2.27615,2.10855 5.83008,1.97116 7.93721,-0.3036 2.1071,-2.27461 1.97125,-5.83017 -0.30279,-7.9372 -2.01224,-1.86406 -5.02263,-1.97326 -7.15053,-0.40103 l -7.86672,-7.28758 c 0.95836,-1.3188 1.4959,-2.83772 1.62489,-4.38201 z"
     id="path74-4"
     style="fill:url(#linearGradient36);stroke-width:0.21413" /></g><text
   xml:space="preserve"
   id="text187"
   style="font-weight:300;font-size:24px;font-family:'Houschka Pro';-inkscape-font-specification:'Houschka Pro Light';white-space:pre;shape-inside:url(#rect187);display:inline;fill:#f9f9f9;stroke-width:0.755906" /><text
   xml:space="preserve"
   style="font-style:normal;font-variant:normal;font-weight:normal;font-stretch:normal;font-size:21.3333px;font-family:'FONTSPRING DEMO - All Round Gothic Text';-inkscape-font-specification:'FONTSPRING DEMO - All Round Gothic Text';fill:#f9f9f9;stroke-width:0.755906"
   x="266.39069"
   y="412.46442"
   id="text188"><tspan
     sodipodi:role="line"
     x="266.39069"
     y="412.46442"
     id="tspan189"
     style="font-size:21.3333px;text-align:center;text-anchor:middle">We understand each customer is </tspan><tspan
     sodipodi:role="line"
     x="266.39069"
     y="439.13104"
     style="font-size:21.3333px;text-align:center;text-anchor:middle"
     id="tspan194">unique, and adapt our algorithms</tspan><tspan
     sodipodi:role="line"
     x="266.39069"
     y="465.79767"
     id="tspan190"
     style="font-size:21.3333px;text-align:center;text-anchor:middle">and interfaces to meet your exact</tspan><tspan
     sodipodi:role="line"
     x="266.39069"
     y="492.46429"
     id="tspan192"
     style="font-size:21.3333px;text-align:center;text-anchor:middle"> requirements. The method is nimble, it</tspan><tspan
     sodipodi:role="line"
     x="266.39069"
     y="519.13092"
     style="font-size:21.3333px;text-align:center;text-anchor:middle"
     id="tspan196">eliminates disruption and minimises cost.</tspan></text><text
   xml:space="preserve"
   id="text198"
   style="font-style:normal;font-variant:normal;font-weight:normal;font-stretch:normal;font-size:21.3333px;font-family:'FONTSPRING DEMO - All Round Gothic Text';-inkscape-font-specification:'FONTSPRING DEMO - All Round Gothic Text';text-align:center;white-space:pre;shape-inside:url(#rect198);display:inline;fill:#f9f9f9;stroke-width:0.755906" /></svg>
